<svg xmlns:xlink="http://www.w3.org/1999/xlink" xmlns="http://www.w3.org/2000/svg" viewBox="38.022127659574465 8.201600000000001 581.5148936170212 391.44" style="max-height: 500px" width="581.5148936170212" height="391.44"><defs><filter filterUnits="objectBoundingBox" y="-5.7%" x="-9%" height="126.9%" width="118%" id="a"><feOffset result="shadowOffsetOuter1" in="SourceAlpha" dy="2"/><feGaussianBlur stdDeviation="2" result="shadowBlurOuter1" in="shadowOffsetOuter1"/><feColorMatrix values="0 0 0 0 0 0 0 0 0 0 0 0 0 0 0 0 0 0 0.5 0" result="shadowMatrixOuter1" in="shadowBlurOuter1"/><feMerge><feMergeNode in="shadowMatrixOuter1"/><feMergeNode in="SourceGraphic"/></feMerge></filter><rect rx="26" height="385" width="578" id="c"/><filter filterUnits="objectBoundingBox" y="-11.7%" x="-13%" height="139%" width="126%" id="b"><feOffset result="shadowOffsetOuter1" in="SourceAlpha" dy="30"/><feGaussianBlur stdDeviation="20" result="shadowBlurOuter1" in="shadowOffsetOuter1"/><feColorMatrix values="0 0 0 0 0.18243335 0 0 0 0 0.230632694 0 0 0 0 0.506057518 0 0 0 0.200120192 0" in="shadowBlurOuter1"/></filter><linearGradient y2="29.014%" y1="71.675%" x2="2.544%" x1="99.013%" id="d"><stop stop-color="#151515" offset="0%"/><stop stop-color="#3D3D3D" offset="100%"/></linearGradient><rect rx="8" y="3" height="346" width="536" id="e"/></defs><g transform="translate(39 9)" filter="url(#a)" fill-rule="evenodd" fill="none"><g transform="translate(.5 .5)"><g fill-rule="nonzero"/><rect rx="25" fill-rule="nonzero" fill="url(#d)" y="2" x="2" height="381.865" width="574.23"/><g transform="translate(21.03 16.303)"><rect rx="5" opacity=".1" fill-rule="nonzero" fill="#2A2A2A" x="33" height="353.756" width="471.463"/><mask fill="#fff" id="f"/><g mask="url(#f)"><path d="M-3.53 3.197h547v59h-547z" fill="#5267DF"/><g fill="#FFF" transform="translate(22.47 17.197)"><circle opacity=".245" r="16" cy="16" cx="16"/><circle opacity=".104" r="16" cy="16" cx="477"/><g transform="translate(47 6)"><rect rx="3" opacity=".75" height="6" width="120"/><rect rx="3" opacity=".25" y="14" height="6" width="64"/></g></g></g><g mask="url(#f)"><g transform="translate(57 96)"><rect rx="8" fill="#FFF" height="316" width="261"/><rect rx="8" fill="#FFF" x="295" height="316" width="128"/><rect rx="3" opacity=".5" fill="#242A45" y="38.197" x="78.47" height="6" width="120"/></g></g></g></g><g transform="translate(110 135)"><circle fill="#F98E5D" r="16" cy="26" cx="16"/><rect rx="3" opacity=".25" fill="#242A45" x="284" height="6" width="88"/><rect rx="3" opacity=".25" fill="#242A45" y="20" x="284" height="6" width="88"/><rect rx="3" opacity=".25" fill="#242A45" y="40" x="284" height="6" width="88"/><rect rx="3" opacity=".25" fill="#242A45" y="60" x="284" height="6" width="88"/><rect rx="3" opacity=".25" fill="#242A45" y="94" x="284" height="6" width="88"/><rect rx="3" opacity=".25" fill="#242A45" y="114" x="284" height="6" width="88"/><rect rx="3" opacity=".25" fill="#242A45" y="134" x="284" height="6" width="88"/><rect rx="3" opacity=".25" fill="#242A45" y="30" x="47" height="6" width="64"/></g><g transform="translate(110 201)"><circle fill="#6AC6D6" r="16" cy="16" cx="16"/><rect rx="3" opacity=".5" fill="#242A45" y="6" x="47" height="6" width="120"/><rect rx="3" opacity=".25" fill="#242A45" y="20" x="47" height="6" width="64"/></g><g transform="translate(110 257)"><circle fill="#A47ED4" r="16" cy="16" cx="16"/><rect rx="3" opacity=".5" fill="#242A45" y="6" x="47" height="6" width="120"/><rect rx="3" opacity=".25" fill="#242A45" y="20" x="47" height="6" width="64"/></g><g transform="translate(110 313)"><circle fill="#EC7878" r="16" cy="16" cx="16"/><rect rx="3" opacity=".5" fill="#242A45" y="6" x="47" height="6" width="120"/><rect rx="3" opacity=".25" fill="#242A45" y="20" x="47" height="6" width="64"/></g></g></svg>